<svg width="109" height="14" viewBox="0 0 109 14" fill="none" xmlns="http://www.w3.org/2000/svg">
<path d="M5.95177 0.000457764H1.21334C0.783249 0.000457764 0.519165 0.264566 0.519165 0.694613V12.2315C0.519165 12.6616 0.783249 12.9257 1.21334 12.9257H5.95177C7.02323 12.9257 7.87583 12.6239 8.48702 12.0278C9.09817 11.4317 9.40752 10.5791 9.40752 9.50762V3.4185C9.40752 2.34707 9.09817 1.49444 8.48702 0.898369C7.87583 0.302261 7.02323 0.000457764 5.95177 0.000457764ZM6.39695 3.53925V9.39446C6.39695 9.71888 6.3366 9.95279 6.2234 10.066C6.11024 10.1792 5.87633 10.2395 5.5519 10.2395H3.52973V2.69415H5.54435C5.86879 2.69415 6.10269 2.7545 6.21585 2.86771C6.3366 2.98088 6.39695 3.21479 6.39695 3.53925Z" fill="white"/>
<path d="M18.1958 0H11.9181C11.488 0 11.2238 0.264108 11.2238 0.694155V12.2311C11.2238 12.6611 11.488 12.9252 11.9181 12.9252H18.1958C18.6109 12.9252 18.8671 12.6611 18.8671 12.2311V10.9257C18.8671 10.4956 18.6109 10.2315 18.1958 10.2315H14.2418V7.71892H17.4712C17.9013 7.71892 18.1655 7.45481 18.1655 7.02473V5.71938C18.1655 5.2893 17.9013 5.02523 17.4712 5.02523H14.2418V2.68615H18.1958C18.6109 2.68615 18.8671 2.42209 18.8671 1.992V0.686616C18.8671 0.264068 18.6109 0 18.1958 0Z" fill="white"/>
<path d="M29.8906 0H28.0873C27.6871 0 27.4156 0.233911 27.3478 0.633803L25.5671 8.94125L23.794 0.641342C23.7186 0.233911 23.4467 0 23.0545 0H21.2436C20.9644 0 20.7607 0.0830099 20.6473 0.241451C20.5719 0.347078 20.4964 0.528176 20.5795 0.799823L23.5524 12.2839C23.6278 12.6913 23.907 12.9252 24.3144 12.9252H26.827C27.2042 12.9252 27.4761 12.6989 27.5664 12.3065L30.547 0.792284C30.5998 0.558372 30.5619 0.369735 30.4489 0.226372C30.3356 0.0754708 30.1395 0 29.8906 0Z" fill="white"/>
<path d="M39.5339 5.73031C38.6661 5.37569 37.6624 5.14932 36.5457 5.05877C35.233 4.9456 35.233 4.47024 35.233 4.31176V3.9496C35.233 3.29314 35.3613 3.06677 35.4367 2.9838C35.5045 2.90833 35.7159 2.78009 36.2891 2.78009H37.0363C37.6023 2.78009 37.8209 2.90079 37.8964 2.96868C37.9718 3.03662 38.0924 3.23279 38.0924 3.77605V3.88925C38.0924 4.31934 38.3567 4.58341 38.7867 4.58341H40.4166C40.8466 4.58341 41.1109 4.31934 41.1109 3.88925V3.52706C41.1109 2.45563 40.7938 1.60299 40.1826 0.999343C39.5641 0.395736 38.7036 0.0939331 37.6172 0.0939331H35.7009C34.6294 0.0939331 33.7693 0.403275 33.1581 0.999343C32.5393 1.60299 32.2299 2.45563 32.2299 3.52706V4.19859C32.2299 5.04369 32.3961 5.74539 32.7204 6.29622C33.0524 6.85455 33.4825 7.23936 33.988 7.43554C34.4483 7.6091 34.9461 7.76 35.4819 7.87321C36.0176 7.98637 36.5155 8.06184 36.9685 8.09954C37.3683 8.12974 37.7003 8.23536 37.9569 8.40892C38.1755 8.55228 38.2812 8.74846 38.2812 9.02011V9.25398C38.2812 9.68407 38.2058 9.99345 38.0698 10.1217C37.9718 10.2198 37.7455 10.3254 37.2251 10.3254H36.3194C35.7534 10.3254 35.5347 10.2047 35.4593 10.1368C35.331 10.0161 35.2632 9.73688 35.2632 9.34453V9.19363C35.2632 8.76354 34.999 8.49947 34.5689 8.49947H32.9391C32.509 8.49947 32.2452 8.76354 32.2452 9.19363V9.57844C32.2452 10.6499 32.5619 11.5025 33.1731 12.1062C33.7919 12.7098 34.6444 13.0116 35.7159 13.0116H37.806C38.8775 13.0116 39.7299 12.7022 40.3488 12.1062C40.9673 11.5025 41.2767 10.6499 41.2767 9.57844V8.92956C41.2767 8.11466 41.1109 7.428 40.7861 6.89229C40.4618 6.32638 40.047 5.94156 39.5339 5.73031Z" fill="#FF8400"/>
<path d="M51.2102 0.0933533H49.5952C49.1652 0.0933533 48.9013 0.357461 48.9013 0.787509V9.48735C48.9013 9.81177 48.8408 10.0457 48.7275 10.1589C48.6145 10.2721 48.3805 10.3324 48.0562 10.3324H46.7358C46.4263 10.3324 46.2 10.2721 46.0866 10.1589C45.9737 10.0457 45.9132 9.81177 45.9132 9.48735V0.787509C45.9132 0.357461 45.6493 0.0933533 45.2193 0.0933533H43.5894C43.1594 0.0933533 42.8951 0.357461 42.8951 0.787509V9.60052C42.8951 10.6871 43.2046 11.5397 43.8081 12.1282C44.4116 12.7168 45.2645 13.0186 46.3509 13.0186H48.4636C49.5351 13.0186 50.3876 12.7168 50.9988 12.1207C51.6099 11.5246 51.9194 10.6719 51.9194 9.60052V0.764892C51.9194 0.357462 51.6479 0.0933533 51.2102 0.0933533Z" fill="#FF8400"/>
<path d="M59.2076 0.0933533H54.5222C54.0921 0.0933533 53.8279 0.357461 53.8279 0.787509V12.3244C53.8279 12.7545 54.0921 13.0186 54.5222 13.0186H56.152C56.5821 13.0186 56.8459 12.7545 56.8459 12.3244V8.77054H59.2076C60.2791 8.77054 61.1319 8.46873 61.7354 7.87263C62.339 7.27656 62.6484 6.42392 62.6484 5.35249V3.5114C62.6484 2.43997 62.339 1.59487 61.7354 0.991264C61.1319 0.402695 60.2791 0.0933533 59.2076 0.0933533ZM59.6304 3.63214V5.24683C59.6304 5.56375 59.5698 5.79012 59.4569 5.90329C59.3512 6.01645 59.1249 6.07685 58.8001 6.07685H56.8386V2.79458H58.8001C59.1249 2.79458 59.3512 2.85498 59.4569 2.96814C59.5698 3.06623 59.6304 3.30014 59.6304 3.63214Z" fill="#FF8400"/>
<path d="M71.0682 0.0933533H64.7905C64.3604 0.0933533 64.0962 0.357461 64.0962 0.787509V12.3244C64.0962 12.7545 64.3604 13.0186 64.7905 13.0186H71.0682C71.4833 13.0186 71.7399 12.7545 71.7399 12.3244V11.0191C71.7399 10.589 71.4833 10.3249 71.0682 10.3249H67.1146V7.81227H70.3364C70.7664 7.81227 71.0307 7.54817 71.0307 7.11808V5.81274C71.0307 5.38265 70.7664 5.11858 70.3364 5.11858H67.1146V2.77951H71.0682C71.4833 2.77951 71.7399 2.51544 71.7399 2.08535V0.77997C71.7399 0.357421 71.4833 0.0933533 71.0682 0.0933533Z" fill="#FF8400"/>
<path d="M80.4822 8.05372C81.5687 7.50289 82.1197 6.48428 82.1197 5.02049V3.52648C82.1197 2.45505 81.8026 1.60241 81.1915 0.998803C80.573 0.395156 79.7202 0.0933533 78.6487 0.0933533H74.0762C73.6462 0.0933533 73.3823 0.357421 73.3823 0.787509V12.3244C73.3823 12.7545 73.6462 13.0186 74.0762 13.0186H75.7061C76.1361 13.0186 76.4004 12.7545 76.4004 12.3244V8.46116H77.4416L79.2752 12.4225C79.3655 12.6564 79.5015 12.8224 79.6673 12.9054C79.8109 12.9808 80.0147 13.011 80.2938 13.011H81.8478C82.1121 13.011 82.3081 12.928 82.4138 12.7696C82.5272 12.6111 82.5345 12.4074 82.4292 12.1358L80.4822 8.05372ZM79.109 3.6246V5.11858C79.109 5.41285 79.0412 5.6241 78.9206 5.73731C78.7846 5.85801 78.5357 5.9259 78.2113 5.9259H76.408V2.77951H78.2113C78.543 2.77951 78.7846 2.83986 78.9206 2.96814C79.0412 3.08885 79.109 3.30768 79.109 3.6246Z" fill="#FF8400"/>
<path d="M86.3943 0.0933533H84.7645C84.3344 0.0933533 84.0702 0.357461 84.0702 0.787509V12.3244C84.0702 12.7545 84.3344 13.0186 84.7645 13.0186H86.3943C86.8244 13.0186 87.0886 12.7545 87.0886 12.3244V0.787509C87.081 0.357461 86.8167 0.0933533 86.3943 0.0933533Z" fill="#FF8400"/>
<path d="M94.6025 0.0933533H92.4522C91.3658 0.0933533 90.5129 0.395156 89.9094 0.983725C89.3059 1.57225 88.9965 2.42489 88.9965 3.5114V9.60052C88.9965 10.6871 89.3059 11.5397 89.9094 12.1282C90.5129 12.7168 91.3658 13.0186 92.4522 13.0186H94.6025C95.6889 13.0186 96.5417 12.7168 97.1453 12.1282C97.7488 11.5397 98.0582 10.6871 98.0582 9.60052V3.5114C98.0582 2.42489 97.7488 1.57225 97.1453 0.983725C96.5417 0.395156 95.6889 0.0933533 94.6025 0.0933533ZM95.0478 3.63214V9.48735C95.0478 9.81177 94.9873 10.0457 94.8744 10.1589C94.761 10.2721 94.527 10.3324 94.2027 10.3324H92.8371C92.5123 10.3324 92.286 10.2721 92.1807 10.1589C92.0673 10.0457 92.0145 9.81177 92.0145 9.48735V3.63214C92.0145 3.30768 92.075 3.07377 92.1807 2.9606C92.286 2.8474 92.5123 2.78705 92.8371 2.78705H94.2027C94.527 2.78705 94.761 2.8474 94.8744 2.9606C94.9873 3.07377 95.0478 3.30768 95.0478 3.63214Z" fill="#FF8400"/>
<path d="M108.929 12.1358L106.974 8.05372C108.061 7.50289 108.612 6.48428 108.612 5.02049V3.52648C108.612 2.45505 108.295 1.60241 107.684 0.998803C107.065 0.395156 106.212 0.0933533 105.141 0.0933533H100.568C100.138 0.0933533 99.8741 0.357421 99.8741 0.787509V12.3244C99.8741 12.7545 100.138 13.0186 100.568 13.0186H102.198C102.628 13.0186 102.892 12.7545 102.892 12.3244V8.46116H103.933L105.767 12.4225C105.858 12.6564 105.993 12.8224 106.16 12.9054C106.303 12.9808 106.506 13.011 106.786 13.011H108.34C108.604 13.011 108.8 12.928 108.906 12.7696C109.019 12.6111 109.034 12.4074 108.929 12.1358ZM105.601 3.6246V5.11858C105.601 5.41285 105.533 5.6241 105.412 5.73731C105.277 5.85801 105.028 5.9259 104.703 5.9259H102.9V2.77951H104.703C105.035 2.77951 105.277 2.83986 105.412 2.96814C105.533 3.08885 105.601 3.30768 105.601 3.6246Z" fill="#FF8400"/>
</svg>
