<svg width="120" height="14" viewBox="0 0 120 14" fill="none" xmlns="http://www.w3.org/2000/svg">
<path d="M16.9518 0.000488281H12.2133C11.7832 0.000488281 11.5192 0.264596 11.5192 0.694644V12.2315C11.5192 12.6616 11.7832 12.9257 12.2133 12.9257H16.9518C18.0232 12.9257 18.8758 12.6239 19.487 12.0278C20.0982 11.4317 20.4075 10.5791 20.4075 9.50765V3.41853C20.4075 2.3471 20.0982 1.49447 19.487 0.898399C18.8758 0.302291 18.0232 0.000488281 16.9518 0.000488281ZM17.397 3.53928V9.39449C17.397 9.71891 17.3366 9.95282 17.2234 10.066C17.1102 10.1792 16.8763 10.2395 16.5519 10.2395H14.5297V2.69418H16.5444C16.8688 2.69418 17.1027 2.75453 17.2159 2.86774C17.3366 2.98091 17.397 3.21482 17.397 3.53928Z" fill="white"/>
<path d="M29.1958 0H22.9181C22.488 0 22.2238 0.264108 22.2238 0.694155V12.2311C22.2238 12.6611 22.488 12.9252 22.9181 12.9252H29.1958C29.6109 12.9252 29.8671 12.6611 29.8671 12.2311V10.9257C29.8671 10.4956 29.6109 10.2315 29.1958 10.2315H25.2418V7.71892H28.4712C28.9013 7.71892 29.1655 7.45481 29.1655 7.02473V5.71938C29.1655 5.2893 28.9013 5.02523 28.4712 5.02523H25.2418V2.68615H29.1958C29.6109 2.68615 29.8671 2.42209 29.8671 1.992V0.686617C29.8671 0.264068 29.6109 0 29.1958 0Z" fill="white"/>
<path d="M40.8906 0H39.0873C38.6871 0 38.4156 0.233911 38.3478 0.633803L36.5671 8.94125L34.794 0.641342C34.7186 0.233911 34.4467 0 34.0545 0H32.2436C31.9644 0 31.7607 0.0830099 31.6473 0.241451C31.5719 0.347078 31.4964 0.528176 31.5795 0.799823L34.5524 12.2839C34.6278 12.6913 34.907 12.9252 35.3144 12.9252H37.827C38.2042 12.9252 38.4761 12.6989 38.5664 12.3065L41.547 0.792284C41.5998 0.558372 41.5619 0.369735 41.4489 0.226372C41.3356 0.0754708 41.1395 0 40.8906 0Z" fill="white"/>
<path d="M50.5339 5.73031C49.6661 5.37569 48.6624 5.14932 47.5457 5.05877C46.233 4.9456 46.233 4.47024 46.233 4.31176V3.9496C46.233 3.29314 46.3613 3.06677 46.4367 2.9838C46.5045 2.90833 46.7159 2.78009 47.2891 2.78009H48.0363C48.6023 2.78009 48.8209 2.90079 48.8964 2.96868C48.9718 3.03662 49.0924 3.23279 49.0924 3.77605V3.88925C49.0924 4.31934 49.3567 4.58341 49.7867 4.58341H51.4166C51.8466 4.58341 52.1109 4.31934 52.1109 3.88925V3.52706C52.1109 2.45563 51.7938 1.60299 51.1826 0.999343C50.5641 0.395736 49.7036 0.0939331 48.6172 0.0939331H46.7009C45.6294 0.0939331 44.7693 0.403275 44.1581 0.999343C43.5393 1.60299 43.2299 2.45563 43.2299 3.52706V4.19859C43.2299 5.04369 43.3961 5.74539 43.7204 6.29622C44.0524 6.85455 44.4825 7.23936 44.988 7.43554C45.4483 7.6091 45.9461 7.76 46.4819 7.87321C47.0176 7.98637 47.5155 8.06184 47.9685 8.09954C48.3683 8.12974 48.7003 8.23536 48.9569 8.40892C49.1755 8.55228 49.2812 8.74846 49.2812 9.02011V9.25398C49.2812 9.68407 49.2058 9.99345 49.0698 10.1217C48.9718 10.2198 48.7455 10.3254 48.2251 10.3254H47.3194C46.7534 10.3254 46.5347 10.2047 46.4593 10.1368C46.331 10.0161 46.2632 9.73688 46.2632 9.34453V9.19363C46.2632 8.76354 45.999 8.49947 45.5689 8.49947H43.9391C43.509 8.49947 43.2452 8.76354 43.2452 9.19363V9.57844C43.2452 10.6499 43.5619 11.5025 44.1731 12.1062C44.7919 12.7098 45.6444 13.0116 46.7159 13.0116H48.806C49.8775 13.0116 50.7299 12.7022 51.3488 12.1062C51.9673 11.5025 52.2767 10.6499 52.2767 9.57844V8.92956C52.2767 8.11466 52.1109 7.428 51.7861 6.89229C51.4618 6.32638 51.047 5.94156 50.5339 5.73031Z" fill="#FF8400"/>
<path d="M62.2102 0.0933838H60.5952C60.1652 0.0933838 59.9013 0.357492 59.9013 0.787539V9.48738C59.9013 9.8118 59.8408 10.0457 59.7275 10.1589C59.6145 10.2721 59.3805 10.3324 59.0562 10.3324H57.7358C57.4263 10.3324 57.2 10.2721 57.0866 10.1589C56.9737 10.0457 56.9132 9.8118 56.9132 9.48738V0.787539C56.9132 0.357492 56.6493 0.0933838 56.2193 0.0933838H54.5894C54.1594 0.0933838 53.8951 0.357492 53.8951 0.787539V9.60055C53.8951 10.6871 54.2046 11.5397 54.8081 12.1283C55.4116 12.7168 56.2645 13.0186 57.3509 13.0186H59.4636C60.5351 13.0186 61.3876 12.7168 61.9988 12.1207C62.6099 11.5246 62.9194 10.672 62.9194 9.60055V0.764923C62.9194 0.357492 62.6479 0.0933838 62.2102 0.0933838Z" fill="#FF8400"/>
<path d="M70.2076 0.0933838H65.5222C65.0921 0.0933838 64.8279 0.357492 64.8279 0.787539V12.3244C64.8279 12.7545 65.0921 13.0186 65.5222 13.0186H67.152C67.5821 13.0186 67.8459 12.7545 67.8459 12.3244V8.77057H70.2076C71.2791 8.77057 72.1319 8.46877 72.7354 7.87266C73.339 7.27659 73.6484 6.42395 73.6484 5.35252V3.51143C73.6484 2.44 73.339 1.5949 72.7354 0.991295C72.1319 0.402726 71.2791 0.0933838 70.2076 0.0933838ZM70.6303 3.63217V5.24686C70.6303 5.56378 70.5698 5.79015 70.4569 5.90332C70.3512 6.01648 70.1249 6.07688 69.8001 6.07688H67.8386V2.79461H69.8001C70.1249 2.79461 70.3512 2.85501 70.4569 2.96817C70.5698 3.06626 70.6303 3.30017 70.6303 3.63217Z" fill="#FF8400"/>
<path d="M82.0682 0.0933838H75.7905C75.3604 0.0933838 75.0962 0.357492 75.0962 0.787539V12.3244C75.0962 12.7545 75.3604 13.0186 75.7905 13.0186H82.0682C82.4833 13.0186 82.7399 12.7545 82.7399 12.3244V11.0191C82.7399 10.589 82.4833 10.3249 82.0682 10.3249H78.1146V7.8123H81.3364C81.7664 7.8123 82.0307 7.5482 82.0307 7.11811V5.81277C82.0307 5.38268 81.7664 5.11861 81.3364 5.11861H78.1146V2.77954H82.0682C82.4833 2.77954 82.7399 2.51547 82.7399 2.08538V0.78C82.7399 0.357452 82.4833 0.0933838 82.0682 0.0933838Z" fill="#FF8400"/>
<path d="M91.4822 8.05376C92.5687 7.50292 93.1197 6.48431 93.1197 5.02052V3.52651C93.1197 2.45508 92.8026 1.60244 92.1915 0.998833C91.573 0.395187 90.7202 0.0933838 89.6487 0.0933838H85.0762C84.6462 0.0933838 84.3823 0.357451 84.3823 0.787539V12.3244C84.3823 12.7545 84.6462 13.0186 85.0762 13.0186H86.7061C87.1361 13.0186 87.4004 12.7545 87.4004 12.3244V8.46119H88.4416L90.2752 12.4225C90.3655 12.6564 90.5015 12.8224 90.6673 12.9054C90.8109 12.9809 91.0147 13.0111 91.2938 13.0111H92.8478C93.1121 13.0111 93.3081 12.928 93.4138 12.7696C93.5272 12.6112 93.5345 12.4074 93.4292 12.1358L91.4822 8.05376ZM90.109 3.62463V5.11861C90.109 5.41288 90.0412 5.62413 89.9206 5.73734C89.7846 5.85804 89.5357 5.92593 89.2113 5.92593H87.408V2.77954H89.2113C89.543 2.77954 89.7846 2.83989 89.9206 2.96817C90.0412 3.08888 90.109 3.30771 90.109 3.62463Z" fill="#FF8400"/>
<path d="M97.3943 0.0933838H95.7645C95.3344 0.0933838 95.0702 0.357492 95.0702 0.787539V12.3244C95.0702 12.7545 95.3344 13.0186 95.7645 13.0186H97.3943C97.8244 13.0186 98.0886 12.7545 98.0886 12.3244V0.787539C98.081 0.357492 97.8167 0.0933838 97.3943 0.0933838Z" fill="#FF8400"/>
<path d="M105.602 0.0933838H103.452C102.366 0.0933838 101.513 0.395187 100.909 0.983756C100.306 1.57228 99.9965 2.42492 99.9965 3.51143V9.60055C99.9965 10.6871 100.306 11.5397 100.909 12.1283C101.513 12.7168 102.366 13.0186 103.452 13.0186H105.602C106.689 13.0186 107.542 12.7168 108.145 12.1283C108.749 11.5397 109.058 10.6871 109.058 9.60055V3.51143C109.058 2.42492 108.749 1.57228 108.145 0.983756C107.542 0.395187 106.689 0.0933838 105.602 0.0933838ZM106.048 3.63217V9.48738C106.048 9.8118 105.987 10.0457 105.874 10.1589C105.761 10.2721 105.527 10.3324 105.203 10.3324H103.837C103.512 10.3324 103.286 10.2721 103.181 10.1589C103.067 10.0457 103.014 9.8118 103.014 9.48738V3.63217C103.014 3.30771 103.075 3.0738 103.181 2.96064C103.286 2.84743 103.512 2.78708 103.837 2.78708H105.203C105.527 2.78708 105.761 2.84743 105.874 2.96064C105.987 3.0738 106.048 3.30771 106.048 3.63217Z" fill="#FF8400"/>
<path d="M119.929 12.1358L117.974 8.05376C119.061 7.50292 119.612 6.48431 119.612 5.02052V3.52651C119.612 2.45508 119.295 1.60244 118.684 0.998833C118.065 0.395187 117.212 0.0933838 116.141 0.0933838H111.568C111.138 0.0933838 110.874 0.357451 110.874 0.787539V12.3244C110.874 12.7545 111.138 13.0186 111.568 13.0186H113.198C113.628 13.0186 113.892 12.7545 113.892 12.3244V8.46119H114.933L116.767 12.4225C116.858 12.6564 116.993 12.8224 117.16 12.9054C117.303 12.9809 117.506 13.0111 117.786 13.0111H119.34C119.604 13.0111 119.8 12.928 119.906 12.7696C120.019 12.6112 120.034 12.4074 119.929 12.1358ZM116.601 3.62463V5.11861C116.601 5.41288 116.533 5.62413 116.412 5.73734C116.277 5.85804 116.028 5.92593 115.703 5.92593H113.9V2.77954H115.703C116.035 2.77954 116.277 2.83989 116.412 2.96817C116.533 3.08888 116.601 3.30771 116.601 3.62463Z" fill="#FF8400"/>
<path d="M9.00674 5.19722C8.9343 5.02692 8.77133 4.91499 8.59479 4.91499H5.62068L6.59845 0.696147C6.64827 0.477175 6.55319 0.248474 6.36307 0.146288C6.17746 0.0441015 5.9466 0.0927599 5.8108 0.267938L0.106996 7.53779C-0.00617981 7.68375 -0.033336 7.88327 0.0436315 8.05843C0.120575 8.23361 0.279012 8.34068 0.455577 8.34068H3.42969L2.45189 12.5595C2.4021 12.7785 2.49715 13.0072 2.6873 13.1094C2.75066 13.1434 2.8231 13.1629 2.89099 13.1629C3.02227 13.1629 3.14903 13.1045 3.23502 12.9926L8.93882 5.71789C9.05652 5.5719 9.07916 5.3724 9.00674 5.19722Z" fill="#FF8400"/>
</svg>
