<svg width="120" height="14" viewBox="0 0 120 14" fill="none" xmlns="http://www.w3.org/2000/svg">
<path d="M16.9518 0.000488281H12.2133C11.7832 0.000488281 11.5192 0.264596 11.5192 0.694644V12.2315C11.5192 12.6616 11.7832 12.9257 12.2133 12.9257H16.9518C18.0232 12.9257 18.8758 12.6239 19.487 12.0278C20.0982 11.4317 20.4075 10.5791 20.4075 9.50765V3.41853C20.4075 2.3471 20.0982 1.49447 19.487 0.898399C18.8758 0.302291 18.0232 0.000488281 16.9518 0.000488281ZM17.397 3.53928V9.39449C17.397 9.71891 17.3366 9.95282 17.2234 10.066C17.1102 10.1792 16.8763 10.2395 16.5519 10.2395H14.5297V2.69418H16.5444C16.8688 2.69418 17.1027 2.75453 17.2159 2.86774C17.3366 2.98091 17.397 3.21482 17.397 3.53928Z" fill="white"/>
<path d="M29.1958 0H22.9181C22.488 0 22.2238 0.264108 22.2238 0.694155V12.2311C22.2238 12.6611 22.488 12.9252 22.9181 12.9252H29.1958C29.6109 12.9252 29.8671 12.6611 29.8671 12.2311V10.9257C29.8671 10.4956 29.6109 10.2315 29.1958 10.2315H25.2418V7.71892H28.4712C28.9013 7.71892 29.1655 7.45481 29.1655 7.02473V5.71938C29.1655 5.2893 28.9013 5.02523 28.4712 5.02523H25.2418V2.68615H29.1958C29.6109 2.68615 29.8671 2.42209 29.8671 1.992V0.686616C29.8671 0.264068 29.6109 0 29.1958 0Z" fill="white"/>
<path d="M40.8906 0H39.0873C38.6871 0 38.4156 0.233911 38.3478 0.633803L36.5671 8.94125L34.794 0.641342C34.7186 0.233911 34.4467 0 34.0545 0H32.2436C31.9644 0 31.7607 0.0830099 31.6473 0.241451C31.5719 0.347078 31.4964 0.528176 31.5795 0.799823L34.5524 12.2839C34.6278 12.6913 34.907 12.9252 35.3144 12.9252H37.827C38.2042 12.9252 38.4761 12.6989 38.5664 12.3065L41.547 0.792284C41.5998 0.558372 41.5619 0.369735 41.4489 0.226372C41.3356 0.0754708 41.1395 0 40.8906 0Z" fill="white"/>
<path d="M50.5339 5.73012C49.6661 5.37551 48.6624 5.14914 47.5457 5.05859C46.233 4.94542 46.233 4.47006 46.233 4.31158V3.94942C46.233 3.29296 46.3613 3.06659 46.4367 2.98362C46.5045 2.90815 46.7159 2.7799 47.2891 2.7799H48.0363C48.6023 2.7799 48.8209 2.90061 48.8964 2.9685C48.9718 3.03643 49.0924 3.23261 49.0924 3.77586V3.88907C49.0924 4.31916 49.3567 4.58322 49.7867 4.58322H51.4166C51.8466 4.58322 52.1109 4.31916 52.1109 3.88907V3.52687C52.1109 2.45544 51.7938 1.60281 51.1826 0.99916C50.5641 0.395553 49.7036 0.09375 48.6172 0.09375H46.7009C45.6294 0.09375 44.7693 0.403092 44.1581 0.99916C43.5393 1.60281 43.2299 2.45544 43.2299 3.52687V4.19841C43.2299 5.04351 43.3961 5.7452 43.7204 6.29604C44.0524 6.85437 44.4825 7.23918 44.988 7.43536C45.4483 7.60892 45.9461 7.75982 46.4819 7.87302C47.0176 7.98619 47.5155 8.06166 47.9685 8.09936C48.3683 8.12955 48.7003 8.23518 48.9569 8.40874C49.1755 8.5521 49.2812 8.74828 49.2812 9.01993V9.2538C49.2812 9.68388 49.2058 9.99327 49.0698 10.1215C48.9718 10.2196 48.7455 10.3253 48.2251 10.3253H47.3194C46.7534 10.3253 46.5347 10.2045 46.4593 10.1366C46.331 10.0159 46.2632 9.7367 46.2632 9.34435V9.19344C46.2632 8.76336 45.999 8.49929 45.5689 8.49929H43.9391C43.509 8.49929 43.2452 8.76336 43.2452 9.19344V9.57826C43.2452 10.6497 43.5619 11.5023 44.1731 12.106C44.7919 12.7096 45.6444 13.0114 46.7159 13.0114H48.806C49.8775 13.0114 50.7299 12.702 51.3488 12.106C51.9673 11.5023 52.2767 10.6497 52.2767 9.57826V8.92938C52.2767 8.11447 52.1109 7.42782 51.7861 6.8921C51.4618 6.32619 51.047 5.94138 50.5339 5.73012Z" fill="#FF8400"/>
<path d="M62.2102 0.0932617H60.5952C60.1652 0.0932617 59.9013 0.35737 59.9013 0.787417V9.48726C59.9013 9.81168 59.8408 10.0456 59.7275 10.1588C59.6145 10.272 59.3805 10.3323 59.0562 10.3323H57.7358C57.4263 10.3323 57.2 10.272 57.0866 10.1588C56.9737 10.0456 56.9132 9.81168 56.9132 9.48726V0.787417C56.9132 0.35737 56.6493 0.0932617 56.2193 0.0932617H54.5894C54.1594 0.0932617 53.8951 0.35737 53.8951 0.787417V9.60043C53.8951 10.687 54.2046 11.5396 54.8081 12.1281C55.4116 12.7167 56.2645 13.0185 57.3509 13.0185H59.4636C60.5351 13.0185 61.3876 12.7167 61.9988 12.1206C62.6099 11.5245 62.9194 10.6719 62.9194 9.60043V0.7648C62.9194 0.35737 62.6479 0.0932617 62.2102 0.0932617Z" fill="#FF8400"/>
<path d="M70.2076 0.0932617H65.5222C65.0921 0.0932617 64.8279 0.35737 64.8279 0.787417V12.3243C64.8279 12.7544 65.0921 13.0185 65.5222 13.0185H67.152C67.5821 13.0185 67.8459 12.7544 67.8459 12.3243V8.77045H70.2076C71.2791 8.77045 72.1319 8.46864 72.7354 7.87254C73.339 7.27647 73.6484 6.42383 73.6484 5.3524V3.51131C73.6484 2.43988 73.339 1.59478 72.7354 0.991172C72.1319 0.402604 71.2791 0.0932617 70.2076 0.0932617ZM70.6304 3.63205V5.24674C70.6304 5.56366 70.5698 5.79003 70.4569 5.9032C70.3512 6.01636 70.1249 6.07675 69.8001 6.07675H67.8386V2.79449H69.8001C70.1249 2.79449 70.3512 2.85489 70.4569 2.96805C70.5698 3.06614 70.6304 3.30005 70.6304 3.63205Z" fill="#FF8400"/>
<path d="M82.0682 0.0932617H75.7905C75.3604 0.0932617 75.0962 0.35737 75.0962 0.787417V12.3243C75.0962 12.7544 75.3604 13.0185 75.7905 13.0185H82.0682C82.4833 13.0185 82.7399 12.7544 82.7399 12.3243V11.019C82.7399 10.5889 82.4833 10.3248 82.0682 10.3248H78.1146V7.81218H81.3364C81.7664 7.81218 82.0307 7.54808 82.0307 7.11799V5.81265C82.0307 5.38256 81.7664 5.11849 81.3364 5.11849H78.1146V2.77942H82.0682C82.4833 2.77942 82.7399 2.51535 82.7399 2.08526V0.779878C82.7399 0.35733 82.4833 0.0932617 82.0682 0.0932617Z" fill="#FF8400"/>
<path d="M91.4822 8.05363C92.5687 7.5028 93.1197 6.48418 93.1197 5.0204V3.52638C93.1197 2.45495 92.8026 1.60232 92.1915 0.998711C91.573 0.395065 90.7202 0.0932617 89.6487 0.0932617H85.0762C84.6462 0.0932617 84.3823 0.357329 84.3823 0.787417V12.3243C84.3823 12.7544 84.6462 13.0185 85.0762 13.0185H86.7061C87.1361 13.0185 87.4004 12.7544 87.4004 12.3243V8.46106H88.4416L90.2752 12.4224C90.3655 12.6563 90.5015 12.8223 90.6673 12.9053C90.8109 12.9807 91.0147 13.0109 91.2938 13.0109H92.8478C93.1121 13.0109 93.3081 12.9279 93.4138 12.7695C93.5272 12.611 93.5345 12.4073 93.4292 12.1357L91.4822 8.05363ZM90.109 3.62451V5.11849C90.109 5.41276 90.0412 5.62401 89.9206 5.73722C89.7846 5.85792 89.5357 5.92581 89.2113 5.92581H87.408V2.77942H89.2113C89.543 2.77942 89.7846 2.83977 89.9206 2.96805C90.0412 3.08876 90.109 3.30759 90.109 3.62451Z" fill="#FF8400"/>
<path d="M97.3943 0.0932617H95.7645C95.3344 0.0932617 95.0702 0.35737 95.0702 0.787417V12.3243C95.0702 12.7544 95.3344 13.0185 95.7645 13.0185H97.3943C97.8244 13.0185 98.0886 12.7544 98.0886 12.3243V0.787417C98.081 0.35737 97.8167 0.0932617 97.3943 0.0932617Z" fill="#FF8400"/>
<path d="M105.602 0.0932617H103.452C102.366 0.0932617 101.513 0.395065 100.909 0.983634C100.306 1.57216 99.9965 2.4248 99.9965 3.51131V9.60043C99.9965 10.687 100.306 11.5396 100.909 12.1281C101.513 12.7167 102.366 13.0185 103.452 13.0185H105.602C106.689 13.0185 107.542 12.7167 108.145 12.1281C108.749 11.5396 109.058 10.687 109.058 9.60043V3.51131C109.058 2.4248 108.749 1.57216 108.145 0.983634C107.542 0.395065 106.689 0.0932617 105.602 0.0932617ZM106.048 3.63205V9.48726C106.048 9.81168 105.987 10.0456 105.874 10.1588C105.761 10.272 105.527 10.3323 105.203 10.3323H103.837C103.512 10.3323 103.286 10.272 103.181 10.1588C103.067 10.0456 103.014 9.81168 103.014 9.48726V3.63205C103.014 3.30759 103.075 3.07368 103.181 2.96051C103.286 2.84731 103.512 2.78695 103.837 2.78695H105.203C105.527 2.78695 105.761 2.84731 105.874 2.96051C105.987 3.07368 106.048 3.30759 106.048 3.63205Z" fill="#FF8400"/>
<path d="M119.929 12.1357L117.974 8.05363C119.061 7.5028 119.612 6.48418 119.612 5.0204V3.52638C119.612 2.45495 119.295 1.60232 118.684 0.998711C118.065 0.395065 117.212 0.0932617 116.141 0.0932617H111.568C111.138 0.0932617 110.874 0.357329 110.874 0.787417V12.3243C110.874 12.7544 111.138 13.0185 111.568 13.0185H113.198C113.628 13.0185 113.892 12.7544 113.892 12.3243V8.46106H114.933L116.767 12.4224C116.858 12.6563 116.993 12.8223 117.16 12.9053C117.303 12.9807 117.506 13.0109 117.786 13.0109H119.34C119.604 13.0109 119.8 12.9279 119.906 12.7695C120.019 12.611 120.034 12.4073 119.929 12.1357ZM116.601 3.62451V5.11849C116.601 5.41276 116.533 5.62401 116.412 5.73722C116.277 5.85792 116.028 5.92581 115.703 5.92581H113.9V2.77942H115.703C116.035 2.77942 116.277 2.83977 116.412 2.96805C116.533 3.08876 116.601 3.30759 116.601 3.62451Z" fill="#FF8400"/>
<path d="M9.00674 5.1971C8.9343 5.0268 8.77133 4.91487 8.59479 4.91487H5.62068L6.59845 0.696025C6.64827 0.477053 6.55319 0.248352 6.36307 0.146166C6.17746 0.0439795 5.9466 0.0926379 5.8108 0.267816L0.106996 7.53766C-0.00617981 7.68363 -0.033336 7.88315 0.0436315 8.05831C0.120575 8.23349 0.279012 8.34056 0.455577 8.34056H3.42969L2.45189 12.5594C2.4021 12.7784 2.49715 13.0071 2.6873 13.1093C2.75066 13.1433 2.8231 13.1628 2.89099 13.1628C3.02227 13.1628 3.14903 13.1044 3.23502 12.9925L8.93882 5.71777C9.05652 5.57178 9.07916 5.37228 9.00674 5.1971Z" fill="#FF8400"/>
</svg>
